<?xml version="1.0" encoding="UTF-8" standalone="no"?>
<!-- Created with Inkscape (http://www.inkscape.org/) -->

<svg
   width="60mm"
   height="60mm"
   viewBox="0 0 60 60.000001"
   version="1.1"
   id="svg8"
   inkscape:version="1.1.2 (0a00cf5339, 2022-02-04, custom)"
   sodipodi:docname="new.svg"
   xmlns:inkscape="http://www.inkscape.org/namespaces/inkscape"
   xmlns:sodipodi="http://sodipodi.sourceforge.net/DTD/sodipodi-0.dtd"
   xmlns="http://www.w3.org/2000/svg"
   xmlns:svg="http://www.w3.org/2000/svg"
   xmlns:rdf="http://www.w3.org/1999/02/22-rdf-syntax-ns#"
   xmlns:cc="http://creativecommons.org/ns#"
   xmlns:dc="http://purl.org/dc/elements/1.1/">
  <defs
     id="defs2" />
  <sodipodi:namedview
     id="base"
     pagecolor="#ffffff"
     bordercolor="#666666"
     borderopacity="1.0"
     inkscape:pageopacity="0.0"
     inkscape:pageshadow="2"
     inkscape:zoom="1.5788321"
     inkscape:cx="93.423487"
     inkscape:cy="73.78872"
     inkscape:document-units="mm"
     inkscape:current-layer="layer1"
     showgrid="false"
     inkscape:window-width="1277"
     inkscape:window-height="1528"
     inkscape:window-x="1273"
     inkscape:window-y="0"
     inkscape:window-maximized="0"
     inkscape:pagecheckerboard="0"
     fit-margin-top="0"
     fit-margin-left="0"
     fit-margin-right="0"
     fit-margin-bottom="0" />
  <metadata
     id="metadata5">
    <rdf:RDF>
      <cc:Work
         rdf:about="">
        <dc:format>image/svg+xml</dc:format>
        <dc:type
           rdf:resource="http://purl.org/dc/dcmitype/StillImage" />
      </cc:Work>
    </rdf:RDF>
  </metadata>
  <g
     inkscape:label="Layer 1"
     inkscape:groupmode="layer"
     id="layer1"
     transform="translate(-52.967503,-77.017563)">
    <g
       id="g11"
       transform="translate(0.4587077,14.320122)">
      <path
         style="fill:#a10000;fill-opacity:1;stroke:none;stroke-width:1.3;stroke-linecap:round;stroke-miterlimit:4;stroke-dasharray:none;stroke-opacity:1"
         d="m 58.975916,83.653574 c -3.936444,0.664472 -6.57035,4.36817 -5.905878,8.304611 l 1.757248,10.410225 c 0.664473,3.93644 4.368255,6.57086 8.304698,5.90639 l 35.031963,-5.91341 C 105.76027,100.84198 112.53888,91.874224 111.79768,87.48327 110.99374,82.720606 97.94432,77.075699 94.007878,77.740171 Z m 42.953474,1.246793 a 3.2678431,3.2678431 0 0 1 3.76638,2.678483 3.2678431,3.2678431 0 0 1 -2.67857,3.765869 3.2678431,3.2678431 0 0 1 -3.76629,-2.677975 3.2678431,3.2678431 0 0 1 2.67848,-3.766377 z"
         id="rect815-6"
         inkscape:connector-curvature="0" />
      <path
         style="fill:#ff3838;fill-opacity:1;stroke:none;stroke-width:1.3;stroke-linecap:round;stroke-miterlimit:4;stroke-dasharray:none;stroke-opacity:1"
         d="m 59.812991,79.61729 c -3.981503,0.291115 -6.952232,3.730536 -6.661117,7.712036 l 0.769875,10.529388 c 0.291115,3.981506 3.73057,6.952746 7.712073,6.661636 L 97.066783,101.9296 C 104.77237,101.13173 112.36475,92.841606 112.04003,88.400392 111.68781,83.583211 99.227452,76.735432 95.245952,77.026546 Z m 42.645569,5.283077 a 3.267843,3.267843 0 0 1 3.49763,3.021006 3.267843,3.267843 0 0 1 -3.02104,3.497112 3.267843,3.267843 0 0 1 -3.497593,-3.020491 3.267843,3.267843 0 0 1 3.021003,-3.497627 z"
         id="rect815"
         inkscape:connector-curvature="0" />
    </g>
  </g>
</svg>
